# xmcd
#
# Track frame offsets:
#	150
#	19785
#	47392
#	72875
#	91425
#	111600
#	134452
#	156355
#	174105
#	194112
#	215325
#	236062
#	257335
#	274270
#	295725
#
# Disc length: 4239 seconds
#
# Revision: 6
# Processed by: cddbd v1.5.2PL0 Copyright (c) Steve Scherf et al.
# Submitted via: dBpowerAMP V4.0
#
DISCID=dd108d0f
DTITLE=合輯 - 情牽女人心一
DYEAR=1997
DGENRE=Pop
TTITLE0=每個愛情都危險/周華健。辛曉琪
TTITLE1=傷痕/林憶蓮
TTITLE2=飄洋過海來看你/娃娃
TTITLE3=我是不是你最疼愛的人/潘越雲
TTITLE4=問/陳淑樺
TTITLE5=為愛癡狂/劉若英
TTITLE6=Stories/齊豫
TTITLE7=味道/辛曉琪
TTITLE8=新不了情/萬芳
TTITLE9=明天，還愛我嗎/陳淑樺
TTITLE10=謝謝你曾經愛過我/潘越雲
TTITLE11=結婚喜帖/黃韻玲
TTITLE12=歡顏/齊豫
TTITLE13=最愛/張艾嘉
TTITLE14=往天涯的盡頭單飛/王新蓮。鄭華娟
EXTD=
EXTT0=
EXTT1=
EXTT2=
EXTT3=
EXTT4=
EXTT5=
EXTT6=
EXTT7=
EXTT8=
EXTT9=
EXTT10=
EXTT11=
EXTT12=
EXTT13=
EXTT14=
PLAYORDER=
